<svg xmlns="http://www.w3.org/2000/svg" xmlns:xlink="http://www.w3.org/1999/xlink" width="336" height="398.001" viewBox="0 0 336 398.001"><defs><filter id="a" x="24.001" y="0" width="301" height="301" filterUnits="userSpaceOnUse"><feOffset dy="3" input="SourceAlpha"/><feGaussianBlur stdDeviation="3" result="b"/><feFlood flood-opacity="0.161"/><feComposite operator="in" in2="b"/><feComposite in="SourceGraphic"/></filter><filter id="c" x="0" y="324.001" width="336" height="74" filterUnits="userSpaceOnUse"><feOffset dy="3" input="SourceAlpha"/><feGaussianBlur stdDeviation="3" result="d"/><feFlood flood-opacity="0.161"/><feComposite operator="in" in2="d"/><feComposite in="SourceGraphic"/></filter></defs><g transform="translate(-5.02 -74.148)"><g transform="translate(37.846 80.073)"><g transform="matrix(1, 0, 0, 1, -32.83, -5.93)" filter="url(#a)"><circle cx="141.5" cy="141.5" r="141.5" transform="translate(33 6)" fill="#fff"/></g><g transform="translate(11.349 11.348)"><g transform="translate(0 0)"><ellipse cx="130.5" cy="130" rx="130.5" ry="130" transform="translate(-0.175 -0.273)" fill="#1f1e2e"/><path d="M665.716-263.512a21.665,21.665,0,0,1-21.61,21.707A21.666,21.666,0,0,1,622.4-263.42a21.664,21.664,0,0,1,21.6-21.7,21.581,21.581,0,0,1,21.721,21.441Z" transform="translate(-513.763 320.637)" fill="#b30813"/><path d="M627.736-246.913a15.849,15.849,0,0,1-15.51-16.185,15.853,15.853,0,0,1,16.189-15.51,15.85,15.85,0,0,1,15.51,16,15.9,15.9,0,0,1-16.107,15.7Z" transform="translate(-550.297 344.014)" fill="#b30813"/><path d="M650.337-246.914a15.852,15.852,0,0,1-15.69-16.011,15.852,15.852,0,0,1,16.01-15.689,15.85,15.85,0,0,1,15.69,15.836,15.914,15.914,0,0,1-15.973,15.863Z" transform="translate(-469.793 344.005)" fill="#b30813"/><path d="M701.9-213.982c0,8.005.185,16.006-.068,23.993a12.236,12.236,0,0,1-7.79,11.521A11.4,11.4,0,0,1,682-180.056c-3.842-3-5.191-7.2-5.183-11.957,0-14.592.074-29.184,0-43.776-.119-15.308-9.579-27.84-24.2-32.342-19.794-6.091-41.537,9.024-42.157,29.744-.463,15.083-.193,30.189-.091,45.314a10.033,10.033,0,0,0,9.988,10.085h.115a10.118,10.118,0,0,0,10.232-10.36c.1-13.417.054-26.843,0-40.26a21.616,21.616,0,0,1,1.235-7.978,12.264,12.264,0,0,1,11.93-8.2,12.377,12.377,0,0,1,11.378,8.974,25.939,25.939,0,0,1,.923,7.679c0,14.193-.151,28.413.056,42.578A33.2,33.2,0,0,0,690-157.941a33.2,33.2,0,0,0,29.542-19.242,34.488,34.488,0,0,0,3.072-15.033v-41.417c0-3.388.325-6.706,2.041-9.732,2.543-4.471,6.437-6.7,11.523-6.343s8.611,3.149,10.552,7.872a20.441,20.441,0,0,1,1.335,7.954c0,13.551-.059,27.1,0,40.646a9.989,9.989,0,0,0,8.451,10.1,10.321,10.321,0,0,0,11.117-5.908,11.923,11.923,0,0,0,.854-5.292c0-13.936.092-27.867,0-41.807a33.019,33.019,0,0,0-32.825-33.177,33.307,33.307,0,0,0-33.631,32.893c-.147,7.482,0,14.968,0,22.446Z" transform="translate(-557.565 376.745)" fill="#fff"/></g></g></g><g transform="matrix(1, 0, 0, 1, 5.02, 74.15)" filter="url(#c)"><text transform="translate(168 375)" fill="#fff" font-size="50" font-family="Arial-BoldMT, Arial" font-weight="700"><tspan x="-158.362" y="0">RESOURCES</tspan></text></g></g></svg>