<svg xmlns="http://www.w3.org/2000/svg" xmlns:xlink="http://www.w3.org/1999/xlink" width="171" height="60" viewBox="0 0 171 60"><defs><filter id="a" x="0" y="0" width="60" height="60" filterUnits="userSpaceOnUse"><feOffset dy="3" input="SourceAlpha"/><feGaussianBlur stdDeviation="3" result="b"/><feFlood flood-opacity="0.161"/><feComposite operator="in" in2="b"/><feComposite in="SourceGraphic"/></filter><filter id="c" x="51" y="14" width="120" height="35" filterUnits="userSpaceOnUse"><feOffset dy="3" input="SourceAlpha"/><feGaussianBlur stdDeviation="3" result="d"/><feFlood flood-opacity="0.161"/><feComposite operator="in" in2="d"/><feComposite in="SourceGraphic"/></filter></defs><g transform="translate(-10.438 -74.103)"><g transform="translate(19.332 80)"><g transform="matrix(1, 0, 0, 1, -8.89, -5.9)" filter="url(#a)"><circle cx="21" cy="21" r="21" transform="translate(9 6)" fill="#fff"/></g><g transform="translate(1.666 1.666)"><g transform="translate(0 0)"><circle cx="19" cy="19" r="19" transform="translate(0.439 0.437)" fill="#1f1e2e"/><path d="M628.87-281.894a3.237,3.237,0,0,1-3.229,3.243,3.237,3.237,0,0,1-3.243-3.229,3.236,3.236,0,0,1,3.226-3.242,3.224,3.224,0,0,1,3.245,3.2Z" transform="translate(-606.211 290.474)" fill="#b30813"/><path d="M614.54-273.876a2.368,2.368,0,0,1-2.317-2.418,2.369,2.369,0,0,1,2.419-2.317,2.368,2.368,0,0,1,2.317,2.39,2.376,2.376,0,0,1-2.406,2.345Z" transform="translate(-603.013 288.428)" fill="#b30813"/><path d="M636.99-273.878a2.368,2.368,0,0,1-2.344-2.392,2.368,2.368,0,0,1,2.392-2.344,2.368,2.368,0,0,1,2.344,2.366,2.378,2.378,0,0,1-2.386,2.37Z" transform="translate(-610.06 288.429)" fill="#b30813"/><path d="M623.9-261.2c0,1.2.028,2.391-.01,3.585a1.828,1.828,0,0,1-1.164,1.721,1.7,1.7,0,0,1-1.8-.237,2.116,2.116,0,0,1-.774-1.786c0-2.18.011-4.36,0-6.54a5,5,0,0,0-3.615-4.832,4.945,4.945,0,0,0-6.3,4.444c-.069,2.253-.029,4.51-.014,6.77a1.5,1.5,0,0,0,1.492,1.507h.017a1.512,1.512,0,0,0,1.529-1.548c.015-2,.008-4.01,0-6.015a3.23,3.23,0,0,1,.185-1.192,1.832,1.832,0,0,1,1.782-1.225,1.849,1.849,0,0,1,1.7,1.341,3.878,3.878,0,0,1,.138,1.147c0,2.12-.023,4.245.008,6.361a4.96,4.96,0,0,0,5.046,4.872,4.961,4.961,0,0,0,4.414-2.875,5.153,5.153,0,0,0,.459-2.246v-6.188a2.855,2.855,0,0,1,.3-1.454,1.733,1.733,0,0,1,1.721-.948,1.754,1.754,0,0,1,1.576,1.176,3.053,3.053,0,0,1,.2,1.188c0,2.024-.009,4.048,0,6.072a1.492,1.492,0,0,0,1.263,1.509,1.542,1.542,0,0,0,1.661-.883,1.781,1.781,0,0,0,.128-.791c0-2.082.014-4.163,0-6.246a4.933,4.933,0,0,0-4.9-4.957,4.976,4.976,0,0,0-5.024,4.914c-.022,1.118,0,2.236,0,3.353Z" transform="translate(-602.377 285.563)" fill="#fff"/></g></g></g><g transform="matrix(1, 0, 0, 1, 10.44, 74.1)" filter="url(#c)"><text transform="translate(111 34)" fill="#fff" font-size="16" font-family="Arial-BoldMT, Arial" font-weight="700"><tspan x="-50.676" y="0">RESOURCES</tspan></text></g></g></svg>