<svg xmlns="http://www.w3.org/2000/svg" width="1127.749" height="1305.548" viewBox="0 0 1127.749 1305.548"><g transform="translate(20684.928 21698.553)"><path d="M930.93-131.2A154.308,154.308,0,0,1,777.007,23.413,154.315,154.315,0,0,1,622.4-130.542,154.3,154.3,0,0,1,776.223-285.12,153.713,153.713,0,0,1,930.93-132.408Z" transform="translate(-20908.453 -21413.43)" fill="#b30813"/><path d="M722.719-52.834A112.883,112.883,0,0,1,612.248-168.112,112.915,112.915,0,0,1,727.557-278.585,112.893,112.893,0,0,1,838.029-164.646,113.276,113.276,0,0,1,723.3-52.834Z" transform="translate(-21230.959 -21207.041)" fill="#b30813"/><path d="M746.4-52.823A112.909,112.909,0,0,1,634.651-166.861,112.9,112.9,0,0,1,748.685-278.608a112.891,112.891,0,0,1,111.756,112.8A113.354,113.354,0,0,1,746.671-52.823Z" transform="translate(-20520.291 -21207.123)" fill="#b30813"/><path d="M1263.327,125.9c0,57.018,1.316,114-.482,170.892-1.216,37.662-19.752,66.859-55.484,82.061a81.2,81.2,0,0,1-85.756-11.312c-27.364-21.35-36.975-51.263-36.914-85.168,0-103.935.529-207.868,0-311.8-.844-109.035-68.228-198.291-172.357-230.36C771.352-303.176,616.48-195.514,612.065-47.934c-3.3,107.43-1.37,215.027-.647,322.752a71.464,71.464,0,0,0,71.142,71.829h.815c40.609,0,72.55-31.028,72.877-73.79.717-95.563.387-191.194,0-286.758a153.94,153.94,0,0,1,8.8-56.822c14.284-36.942,47.108-59.7,84.971-58.389A88.158,88.158,0,0,1,931.062-65.2a184.757,184.757,0,0,1,6.57,54.7c0,101.088-1.073,202.374.4,303.265,2.288,130.58,110.011,234.581,240.587,232.291A236.5,236.5,0,0,0,1389.034,388a245.629,245.629,0,0,0,21.884-107.073v-295c0-24.13,2.313-47.767,14.537-69.313,18.117-31.845,45.846-47.7,82.07-45.18s61.336,22.427,75.157,56.071a145.584,145.584,0,0,1,9.512,56.655c0,96.516-.422,192.994,0,289.5a71.147,71.147,0,0,0,60.192,71.927,73.513,73.513,0,0,0,79.183-42.077,84.9,84.9,0,0,0,6.085-37.7c0-99.259.656-198.484,0-297.776-1.113-131.788-103.937-235.231-233.8-236.309-130.776-1.279-237.912,103.509-239.539,234.284-1.051,53.29,0,106.613,0,159.87Z" transform="translate(-21295.125 -20918.1)" fill="#fff"/></g></svg>