<svg xmlns="http://www.w3.org/2000/svg" xmlns:xlink="http://www.w3.org/1999/xlink" width="48" height="37.091" viewBox="0 0 48 37.091"><defs><filter id="a" x="0" y="0" width="48" height="37.091" filterUnits="userSpaceOnUse"><feOffset dy="3" input="SourceAlpha"/><feGaussianBlur stdDeviation="3" result="b"/><feFlood flood-opacity="0.161"/><feComposite operator="in" in2="b"/><feComposite in="SourceGraphic"/></filter></defs><g transform="matrix(1, 0, 0, 1, 0, 0)" filter="url(#a)"><path d="M21.455,13.182a4.091,4.091,0,1,0-4.091-4.091A4.074,4.074,0,0,0,21.455,13.182Zm-10.909,0A4.091,4.091,0,1,0,6.455,9.091,4.074,4.074,0,0,0,10.545,13.182Zm0,2.727C7.368,15.909,1,17.5,1,20.682v2.045a1.368,1.368,0,0,0,1.364,1.364H18.727a1.368,1.368,0,0,0,1.364-1.364V20.682C20.091,17.5,13.723,15.909,10.545,15.909Zm10.909,0c-.4,0-.845.027-1.323.068.027.014.041.041.055.055a5.672,5.672,0,0,1,2.632,4.65v2.045a4.1,4.1,0,0,1-.245,1.364h7.064A1.368,1.368,0,0,0,31,22.727V20.682C31,17.5,24.632,15.909,21.455,15.909Z" transform="translate(8 1)" fill="#fff"/></g></svg>