<svg xmlns="http://www.w3.org/2000/svg" xmlns:xlink="http://www.w3.org/1999/xlink" width="48" height="48" viewBox="0 0 48 48"><defs><linearGradient id="a" x1="0.5" x2="0.5" y2="1" gradientUnits="objectBoundingBox"><stop offset="0" stop-color="#661320"/><stop offset="1" stop-color="#1f1e2e"/></linearGradient><filter id="b" x="0" y="0" width="48" height="48" filterUnits="userSpaceOnUse"><feOffset dy="3" input="SourceAlpha"/><feGaussianBlur stdDeviation="3" result="c"/><feFlood flood-opacity="0.161"/><feComposite operator="in" in2="c"/><feComposite in="SourceGraphic"/></filter></defs><g transform="matrix(1, 0, 0, 1, 0, 0)" filter="url(#b)"><path d="M29.667,3H6.333A3.343,3.343,0,0,0,3,6.333V29.667A3.343,3.343,0,0,0,6.333,33H29.667A3.343,3.343,0,0,0,33,29.667V6.333A3.343,3.343,0,0,0,29.667,3ZM11.333,26.333a1.672,1.672,0,0,1-1.667-1.667V16.333a1.667,1.667,0,0,1,3.333,0v8.333A1.672,1.672,0,0,1,11.333,26.333Zm6.667,0a1.672,1.672,0,0,1-1.667-1.667V11.333a1.667,1.667,0,1,1,3.333,0V24.667A1.672,1.672,0,0,1,18,26.333Zm6.667,0A1.672,1.672,0,0,1,23,24.667V21.333a1.667,1.667,0,1,1,3.333,0v3.333A1.672,1.672,0,0,1,24.667,26.333Z" transform="translate(6 3)" fill="url(#a)"/></g></svg>