<svg xmlns="http://www.w3.org/2000/svg" width="19" height="19" viewBox="0 0 19 19"><path d="M19.889,13.556v5.278a1.059,1.059,0,0,1-1.056,1.056H6.167a1.059,1.059,0,0,1-1.056-1.056V13.556a1.056,1.056,0,1,0-2.111,0v6.333A2.117,2.117,0,0,0,5.111,22H19.889A2.117,2.117,0,0,0,22,19.889V13.556a1.056,1.056,0,1,0-2.111,0Zm-6.333-.348,1.984-1.984a1.052,1.052,0,1,1,1.488,1.488L13.239,16.5a1.051,1.051,0,0,1-1.488,0L7.961,12.711a1.052,1.052,0,0,1,1.488-1.488l1.995,1.984V4.056a1.056,1.056,0,0,1,2.111,0Z" transform="translate(-3 -3)" fill="#1ba5b9"/></svg>