<svg xmlns="http://www.w3.org/2000/svg" xmlns:xlink="http://www.w3.org/1999/xlink" width="48" height="46.5" viewBox="0 0 48 46.5"><defs><filter id="a" x="0" y="0" width="48" height="46.5" filterUnits="userSpaceOnUse"><feOffset dy="3" input="SourceAlpha"/><feGaussianBlur stdDeviation="3" result="b"/><feFlood flood-opacity="0.161"/><feComposite operator="in" in2="b"/><feComposite in="SourceGraphic"/></filter></defs><g transform="matrix(1, 0, 0, 1, 0, 0)" filter="url(#a)"><path d="M29,8H23V5a2.99,2.99,0,0,0-3-3H14a2.99,2.99,0,0,0-3,3V8H5a2.977,2.977,0,0,0-2.985,3L2,27.5a2.99,2.99,0,0,0,3,3H29a2.99,2.99,0,0,0,3-3V11A2.99,2.99,0,0,0,29,8ZM20,8H14V5h6Z" transform="translate(7 4)" fill="#fff"/></g></svg>