<svg xmlns="http://www.w3.org/2000/svg" xmlns:xlink="http://www.w3.org/1999/xlink" width="48" height="42" viewBox="0 0 48 42"><defs><filter id="a" x="0" y="0" width="48" height="42" filterUnits="userSpaceOnUse"><feOffset dy="3" input="SourceAlpha"/><feGaussianBlur stdDeviation="3" result="b"/><feFlood flood-opacity="0.161"/><feComposite operator="in" in2="b"/><feComposite in="SourceGraphic"/></filter></defs><g transform="matrix(1, 0, 0, 1, 0, 0)" filter="url(#a)"><path d="M17,7.275H5L2.885,5.16a3.009,3.009,0,0,0-2.13-.885H-7a3,3,0,0,0-2.985,3l-.015,18a3.009,3.009,0,0,0,3,3H17a3.009,3.009,0,0,0,3-3v-15A3.009,3.009,0,0,0,17,7.275Zm-10.5,15h-9a1.5,1.5,0,0,1-1.5-1.5h0a1.5,1.5,0,0,1,1.5-1.5h9a1.5,1.5,0,0,1,1.5,1.5H8A1.5,1.5,0,0,1,6.5,22.275Zm6-6h-15a1.5,1.5,0,0,1-1.5-1.5h0a1.5,1.5,0,0,1,1.5-1.5h15a1.5,1.5,0,0,1,1.5,1.5h0A1.5,1.5,0,0,1,12.5,16.275Z" transform="translate(19 1.73)" fill="#fff"/></g></svg>