<svg xmlns="http://www.w3.org/2000/svg" xmlns:xlink="http://www.w3.org/1999/xlink" width="48" height="50.667" viewBox="0 0 48 50.667"><defs><filter id="a" x="0" y="0" width="48" height="50.667" filterUnits="userSpaceOnUse"><feOffset dy="3" input="SourceAlpha"/><feGaussianBlur stdDeviation="3" result="b"/><feFlood flood-opacity="0.161"/><feComposite operator="in" in2="b"/><feComposite in="SourceGraphic"/></filter></defs><g transform="matrix(1, 0, 0, 1, 0, 0)" filter="url(#a)"><path d="M33,2.217a.782.782,0,0,0-.583.25L31.1,3.783a.825.825,0,0,1-1.183,0L28.6,2.467a.825.825,0,0,0-1.183,0L26.1,3.783a.825.825,0,0,1-1.183,0L23.6,2.467a.825.825,0,0,0-1.183,0L21.1,3.783a.825.825,0,0,1-1.183,0L18.6,2.467a.825.825,0,0,0-1.183,0L16.1,3.783a.825.825,0,0,1-1.183,0L13.583,2.45a.825.825,0,0,0-1.183,0L11.083,3.783a.825.825,0,0,1-1.183,0L8.583,2.45a.825.825,0,0,0-1.183,0L6.083,3.783a.825.825,0,0,1-1.183,0L3.583,2.45A.833.833,0,0,0,3,2.217v32.65a.782.782,0,0,0,.583-.25L4.9,33.3a.825.825,0,0,1,1.183,0L7.4,34.617a.825.825,0,0,0,1.183,0L9.9,33.3a.825.825,0,0,1,1.183,0L12.4,34.617a.825.825,0,0,0,1.183,0L14.9,33.3a.825.825,0,0,1,1.183,0L17.4,34.617a.825.825,0,0,0,1.183,0L19.9,33.3a.825.825,0,0,1,1.183,0L22.4,34.617a.825.825,0,0,0,1.183,0L24.9,33.3a.825.825,0,0,1,1.183,0L27.4,34.617a.825.825,0,0,0,1.183,0L29.9,33.3a.825.825,0,0,1,1.183,0L32.4,34.617a.837.837,0,0,0,.583.25V2.217Zm-6.667,24.65H9.667a1.667,1.667,0,0,1,0-3.333H26.333a1.667,1.667,0,1,1,0,3.333Zm0-6.667H9.667a1.667,1.667,0,0,1,0-3.333H26.333a1.667,1.667,0,0,1,0,3.333Zm0-6.667H9.667a1.667,1.667,0,0,1,0-3.333H26.333a1.667,1.667,0,1,1,0,3.333Z" transform="translate(6 3.8)" fill="#fff"/></g></svg>