<svg xmlns="http://www.w3.org/2000/svg" width="19" height="18.999" viewBox="0 0 19 18.999"><path d="M-9.337,13.556v5.278a1.059,1.059,0,0,1-1.056,1.056H-23.059a1.059,1.059,0,0,1-1.056-1.056V13.556A1.059,1.059,0,0,0-25.17,12.5a1.059,1.059,0,0,0-1.056,1.056v6.333A2.117,2.117,0,0,0-24.115,22H-9.337a2.117,2.117,0,0,0,2.111-2.111V13.556A1.059,1.059,0,0,0-8.282,12.5,1.059,1.059,0,0,0-9.337,13.556ZM-17.792,6.6l-1.984,1.984a1.051,1.051,0,0,1-1.488,0,1.051,1.051,0,0,1,0-1.488l3.789-3.789a1.051,1.051,0,0,1,1.488,0L-12.2,7.1a1.051,1.051,0,0,1,0,1.488,1.051,1.051,0,0,1-1.488,0l-2-1.984v9.152a1.059,1.059,0,0,1-1.056,1.056,1.059,1.059,0,0,1-1.056-1.056Z" transform="translate(26.226 -3.001)" fill="#1ba5b9"/></svg>